<svg version="1.1" baseProfile="full" width="1317" height="1277" viewbox="0 0 1317 1277" xmlns="http://www.w3.org/2000/svg" xmlns:xlink="http://www.w3.org/1999/xlink" xmlns:ev="http://www.w3.org/2001/xml-events" style="font-weight:bold; font-size:12pt; font-family:'Calibri', Helvetica, sans-serif;;stroke-width:3;stroke-linejoin:round;stroke-linecap:round">
  <title >nomnoml</title>
  <desc >[molgenis-py-consensus|

    [MolgenisConfigParser|file|
      parse()
    ]
    
    [&lt;note&gt; config file|
      username;password;labs;prefix;consensus;server;comments;previous;history
    ] 
    
    [config file] -&gt; [MolgenisConfigParser]
    [MolgenisConfigParser] -&gt; [config]
    
    [DataRetriever|labs;prefix;server;history|
      retrieve_all_data()
      _start_thread_for_lab()
      _start_data_retrieval()
      _retrieve_data()
      _get_number_of_pages()
      _get_total()
    ] 
    
    [Variants||
      get_variant_type()
      _strip_matching_seq_start()
      need_simplification()
      _simplify_ref_alt()
      _get_actual_ref_and_alt()
    ]
    
    [Classifications||
      get_full_classification_from_abbreviation()
      transform_classification()
      is_conflicting_classification()
      is_no_consensus()
    ]
    
    [HistorySorter|history_data;previous_exports|
      sort_history()
    ]

    [Variants] --&gt; [ConsensusReporter]
    [ConsensusTableGenerator] -&gt; [ConsensusFileGenerator]
    [HistorySorter] -&gt; [ConsensusFileGenerator]
    [Classifications] --&gt; [ConsensusTableGenerator]
    [Classifications] --&gt; [ConsensusFileGenerator]

    [ConsensusTableGenerator|lab_data|
      process_variants()
      _add_new_variant()
      _update_variant()
      _update_if_not_exists()
    ]

    [ConsensusFileGenerator|data;tables|
      generate_consensus_files()
      _create_consensus_line()
      _get_lab_classification()
      _get_match_count_if_consensus()
      _get_matching_history()
    ]

    [ConsensusFileGenerator] -&gt; [&lt;note&gt; comments.csv]
    [ConsensusFileGenerator] -&gt; [&lt;note&gt; consensus.csv]

    [ConsensusReporter|consensus_csv;session;labs;public_consenssus;prefix|
      process_consensus()
      count_classifications()
      write_opposites()
      write_public_table()
      write_variant_types()
      write_count_output()
      quality_check()
    ]

    [&lt;note&gt; public_consensus.csv] -&gt; [&lt;database&gt;MOLGENIS]

    [DataRetriever] -&gt; [HistorySorter]
    [DataRetriever] -&gt; [ConsensusTableGenerator]
    [consensus.csv] -&gt; [ConsensusReporter]
    [consensus.csv] -&gt; [MOLGENIS]
    [counts.html] -&gt; [MOLGENIS]
    
    [ConsensusReporter] -&gt; [&lt;note&gt;log.txt]
    [ConsensusReporter] -&gt; [&lt;note&gt; delins.csv]
    [ConsensusReporter] -&gt; [&lt;note&gt; public_consensus.csv]
    [ConsensusReporter] -&gt; [&lt;note&gt; counts.html]
    [ConsensusReporter] -&gt; [&lt;note&gt; opposites.txt]
    [ConsensusReporter] -&gt; [&lt;note&gt; types.txt]
]</desc>
  <rect x="13.5" y="13.5" height="1251" width="1291" style="stroke:#33322E;fill:#eee8d5;stroke-dasharray:none;"></rect>
  <text x="659" y="35" style="text-anchor: middle;">molgenis-py-consensus</text>
  <path d="M13.5 44.5 L1304.5 44.5" style="stroke:#33322E;fill:none;stroke-dasharray:none;"></path>
  <path d="M1186 255 L1186 290.5 L1186 333 L1186 333 " style="stroke:#33322E;fill:none;stroke-dasharray:none;"></path>
  <path d="M1180.7 319.7 L1186 326.3 L1191.3 319.7 L1186 333 Z" style="stroke:#33322E;fill:#33322E;stroke-dasharray:none;"></path>
  <path d="M1186 426 L1186 468.5 L1186 557 L1186 557 " style="stroke:#33322E;fill:none;stroke-dasharray:none;"></path>
  <path d="M1180.7 543.7 L1186 550.3 L1191.3 543.7 L1186 557 Z" style="stroke:#33322E;fill:#33322E;stroke-dasharray:none;"></path>
  <path d="M354.8 826.5 L354.8 846.5 L386.8 876.8 L386.8 876.8 " style="stroke:#33322E;fill:none;stroke-dasharray:6 6;"></path>
  <path d="M373.4 871.5 L381.9 872.2 L380.7 863.7 L386.8 876.8 Z" style="stroke:#33322E;fill:#33322E;stroke-dasharray:none;"></path>
  <path d="M710 448.5 L710 468.5 L719.3 488.5 L719.3 488.5 " style="stroke:#33322E;fill:none;stroke-dasharray:none;"></path>
  <path d="M708.9 478.7 L716.5 482.5 L718.5 474.2 L719.3 488.5 Z" style="stroke:#33322E;fill:#33322E;stroke-dasharray:none;"></path>
  <path d="M463 433.5 L463 468.5 L603 517.8 L603 517.8 " style="stroke:#33322E;fill:none;stroke-dasharray:none;"></path>
  <path d="M588.7 518.4 L596.7 515.6 L592.2 508.3 L603 517.8 Z" style="stroke:#33322E;fill:#33322E;stroke-dasharray:none;"></path>
  <path d="M798.9 221.5 L710 290.5 L710 310.5 L710 310.5 " style="stroke:#33322E;fill:none;stroke-dasharray:6 6;"></path>
  <path d="M704.7 297.2 L710 303.8 L715.3 297.2 L710 310.5 Z" style="stroke:#33322E;fill:#33322E;stroke-dasharray:none;"></path>
  <path d="M873 221.5 L873 290.5 L873 379.5 L873 379.5 L873 468.5 L873 468.5 L851 488.5 L851 488.5 " style="stroke:#33322E;fill:none;stroke-dasharray:6 6;"></path>
  <path d="M857.3 475.6 L855.9 484 L864.4 483.5 L851 488.5 Z" style="stroke:#33322E;fill:#33322E;stroke-dasharray:none;"></path>
  <path d="M633.1 656.5 L603.3 676.5 L603.3 746 L603.3 746 " style="stroke:#33322E;fill:none;stroke-dasharray:none;"></path>
  <path d="M597.9 732.7 L603.3 739.3 L608.6 732.7 L603.3 746 Z" style="stroke:#33322E;fill:#33322E;stroke-dasharray:none;"></path>
  <path d="M914 636.9 L1009.5 676.5 L1009.5 746 L1009.5 746 " style="stroke:#33322E;fill:none;stroke-dasharray:none;"></path>
  <path d="M1004.2 732.7 L1009.5 739.3 L1014.8 732.7 L1009.5 746 Z" style="stroke:#33322E;fill:#33322E;stroke-dasharray:none;"></path>
  <path d="M403.5 1180.5 L403.5 1200.5 L613.3 1229.3 L613.3 1229.3 " style="stroke:#33322E;fill:none;stroke-dasharray:none;"></path>
  <path d="M599.3 1232.8 L606.6 1228.4 L600.8 1222.2 L613.3 1229.3 Z" style="stroke:#33322E;fill:#33322E;stroke-dasharray:none;"></path>
  <path d="M469.3 270.5 L463 290.5 L463 325.5 L463 325.5 " style="stroke:#33322E;fill:none;stroke-dasharray:none;"></path>
  <path d="M457.7 312.2 L463 318.8 L468.3 312.2 L463 325.5 Z" style="stroke:#33322E;fill:#33322E;stroke-dasharray:none;"></path>
  <path d="M524.7 270.5 L528.8 290.5 L592.5 321.8 L592.5 321.8 " style="stroke:#33322E;fill:none;stroke-dasharray:none;"></path>
  <path d="M578.2 320.7 L586.5 318.9 L582.9 311.1 L592.5 321.8 Z" style="stroke:#33322E;fill:#33322E;stroke-dasharray:none;"></path>
  <path d="M980.8 777 L852 846.5 L621.8 940.2 L621.8 940.2 " style="stroke:#33322E;fill:none;stroke-dasharray:none;"></path>
  <path d="M632.1 930.2 L627.9 937.7 L636.1 940.1 L621.8 940.2 Z" style="stroke:#33322E;fill:#33322E;stroke-dasharray:none;"></path>
  <path d="M1013.1 777 L1029.5 846.5 L1029.5 988 L1029.5 988 L1029.5 1129.5 L1029.5 1129.5 L1029.5 1165 L1029.5 1165 L1029.5 1200.5 L1029.5 1200.5 L710.3 1231.3 L710.3 1231.3 " style="stroke:#33322E;fill:none;stroke-dasharray:none;"></path>
  <path d="M723 1224.7 L716.9 1230.7 L724 1235.3 L710.3 1231.3 Z" style="stroke:#33322E;fill:#33322E;stroke-dasharray:none;"></path>
  <path d="M607 1180.5 L607 1200.5 L637.8 1220.5 L637.8 1220.5 " style="stroke:#33322E;fill:none;stroke-dasharray:none;"></path>
  <path d="M623.8 1217.7 L632.3 1216.9 L629.6 1208.8 L637.8 1220.5 Z" style="stroke:#33322E;fill:#33322E;stroke-dasharray:none;"></path>
  <path d="M386.8 1026.1 L68 1129.5 L68 1149.5 L68 1149.5 " style="stroke:#33322E;fill:none;stroke-dasharray:none;"></path>
  <path d="M62.7 1136.2 L68 1142.8 L73.3 1136.2 L68 1149.5 Z" style="stroke:#33322E;fill:#33322E;stroke-dasharray:none;"></path>
  <path d="M386.8 1043.6 L205 1129.5 L205 1149.5 L205 1149.5 " style="stroke:#33322E;fill:none;stroke-dasharray:none;"></path>
  <path d="M199.7 1136.2 L205 1142.8 L210.3 1136.2 L205 1149.5 Z" style="stroke:#33322E;fill:#33322E;stroke-dasharray:none;"></path>
  <path d="M417.7 1109.5 L403.5 1129.5 L403.5 1149.5 L403.5 1149.5 " style="stroke:#33322E;fill:none;stroke-dasharray:none;"></path>
  <path d="M398.2 1136.2 L403.5 1142.8 L408.8 1136.2 L403.5 1149.5 Z" style="stroke:#33322E;fill:#33322E;stroke-dasharray:none;"></path>
  <path d="M592.5 1109.5 L607 1129.5 L607 1149.5 L607 1149.5 " style="stroke:#33322E;fill:none;stroke-dasharray:none;"></path>
  <path d="M601.7 1136.2 L607 1142.8 L612.3 1136.2 L607 1149.5 Z" style="stroke:#33322E;fill:#33322E;stroke-dasharray:none;"></path>
  <path d="M621.8 1048.8 L777.5 1129.5 L777.5 1149.5 L777.5 1149.5 " style="stroke:#33322E;fill:none;stroke-dasharray:none;"></path>
  <path d="M772.2 1136.2 L777.5 1142.8 L782.8 1136.2 L777.5 1149.5 Z" style="stroke:#33322E;fill:#33322E;stroke-dasharray:none;"></path>
  <path d="M621.8 1026.3 L938.5 1129.5 L938.5 1149.5 L938.5 1149.5 " style="stroke:#33322E;fill:none;stroke-dasharray:none;"></path>
  <path d="M933.2 1136.2 L938.5 1142.8 L943.8 1136.2 L938.5 1149.5 Z" style="stroke:#33322E;fill:#33322E;stroke-dasharray:none;"></path>
  <rect x="1080.5" y="333.5" height="93" width="211" style="stroke:#33322E;fill:#fdf6e3;stroke-dasharray:none;"></rect>
  <text x="1186" y="355" style="text-anchor: middle;">MolgenisConfigParser</text>
  <path d="M1080.5 364.5 L1291.5 364.5" style="stroke:#33322E;fill:none;stroke-dasharray:none;"></path>
  <text x="1088.5" y="386" style="font-weight:normal;">file</text>
  <path d="M1080.5 395.5 L1291.5 395.5" style="stroke:#33322E;fill:none;stroke-dasharray:none;"></path>
  <text x="1088.5" y="417" style="font-weight:normal;">parse()</text>
  <rect x="385.5" y="57.5" height="213" width="235" style="stroke:#33322E;fill:#fdf6e3;stroke-dasharray:none;"></rect>
  <text x="503" y="79" style="text-anchor: middle;">DataRetriever</text>
  <path d="M385.5 88.5 L620.5 88.5" style="stroke:#33322E;fill:none;stroke-dasharray:none;"></path>
  <text x="393.5" y="110" style="font-weight:normal;">labs</text>
  <text x="393.5" y="125" style="font-weight:normal;">prefix</text>
  <text x="393.5" y="140" style="font-weight:normal;">server</text>
  <text x="393.5" y="155" style="font-weight:normal;">history</text>
  <path d="M385.5 164.5 L620.5 164.5" style="stroke:#33322E;fill:none;stroke-dasharray:none;"></path>
  <text x="393.5" y="186" style="font-weight:normal;">retrieve_all_data()</text>
  <text x="393.5" y="201" style="font-weight:normal;">_start_thread_for_lab()</text>
  <text x="393.5" y="216" style="font-weight:normal;">_start_data_retrieval()</text>
  <text x="393.5" y="231" style="font-weight:normal;">_retrieve_data()</text>
  <text x="393.5" y="246" style="font-weight:normal;">_get_number_of_pages()</text>
  <text x="393.5" y="261" style="font-weight:normal;">_get_total()</text>
  <rect x="218.5" y="696.5" height="130" width="273" style="stroke:#33322E;fill:#fdf6e3;stroke-dasharray:none;"></rect>
  <text x="355" y="718" style="text-anchor: middle;">Variants</text>
  <path d="M218.5 727.5 L491.5 727.5" style="stroke:#33322E;fill:none;stroke-dasharray:none;"></path>
  <path d="M218.5 735.5 L491.5 735.5" style="stroke:#33322E;fill:none;stroke-dasharray:none;"></path>
  <text x="226.5" y="757" style="font-weight:normal;">get_variant_type()</text>
  <text x="226.5" y="772" style="font-weight:normal;">_strip_matching_seq_start()</text>
  <text x="226.5" y="787" style="font-weight:normal;">need_simplification()</text>
  <text x="226.5" y="802" style="font-weight:normal;">_simplify_ref_alt()</text>
  <text x="226.5" y="817" style="font-weight:normal;">_get_actual_ref_and_alt()</text>
  <rect x="660.5" y="106.5" height="115" width="425" style="stroke:#33322E;fill:#fdf6e3;stroke-dasharray:none;"></rect>
  <text x="873" y="128" style="text-anchor: middle;">Classifications</text>
  <path d="M660.5 137.5 L1085.5 137.5" style="stroke:#33322E;fill:none;stroke-dasharray:none;"></path>
  <path d="M660.5 145.5 L1085.5 145.5" style="stroke:#33322E;fill:none;stroke-dasharray:none;"></path>
  <text x="668.5" y="167" style="font-weight:normal;">get_full_classification_from_abbreviation()</text>
  <text x="668.5" y="182" style="font-weight:normal;">transform_classification()</text>
  <text x="668.5" y="197" style="font-weight:normal;">is_conflicting_classification()</text>
  <text x="668.5" y="212" style="font-weight:normal;">is_no_consensus()</text>
  <rect x="379.5" y="325.5" height="108" width="168" style="stroke:#33322E;fill:#fdf6e3;stroke-dasharray:none;"></rect>
  <text x="463.5" y="347" style="text-anchor: middle;">HistorySorter</text>
  <path d="M379.5 356.5 L547.5 356.5" style="stroke:#33322E;fill:none;stroke-dasharray:none;"></path>
  <text x="387.5" y="378" style="font-weight:normal;">history_data</text>
  <text x="387.5" y="393" style="font-weight:normal;">previous_exports</text>
  <path d="M379.5 402.5 L547.5 402.5" style="stroke:#33322E;fill:none;stroke-dasharray:none;"></path>
  <text x="387.5" y="424" style="font-weight:normal;">sort_history()</text>
  <rect x="592.5" y="310.5" height="138" width="235" style="stroke:#33322E;fill:#fdf6e3;stroke-dasharray:none;"></rect>
  <text x="710" y="332" style="text-anchor: middle;">ConsensusTableGenerator</text>
  <path d="M592.5 341.5 L827.5 341.5" style="stroke:#33322E;fill:none;stroke-dasharray:none;"></path>
  <text x="600.5" y="363" style="font-weight:normal;">lab_data</text>
  <path d="M592.5 372.5 L827.5 372.5" style="stroke:#33322E;fill:none;stroke-dasharray:none;"></path>
  <text x="600.5" y="394" style="font-weight:normal;">process_variants()</text>
  <text x="600.5" y="409" style="font-weight:normal;">_add_new_variant()</text>
  <text x="600.5" y="424" style="font-weight:normal;">_update_variant()</text>
  <text x="600.5" y="439" style="font-weight:normal;">_update_if_not_exists()</text>
  <rect x="603.5" y="488.5" height="168" width="311" style="stroke:#33322E;fill:#fdf6e3;stroke-dasharray:none;"></rect>
  <text x="759" y="510" style="text-anchor: middle;">ConsensusFileGenerator</text>
  <path d="M603.5 519.5 L914.5 519.5" style="stroke:#33322E;fill:none;stroke-dasharray:none;"></path>
  <text x="611.5" y="541" style="font-weight:normal;">data</text>
  <text x="611.5" y="556" style="font-weight:normal;">tables</text>
  <path d="M603.5 565.5 L914.5 565.5" style="stroke:#33322E;fill:none;stroke-dasharray:none;"></path>
  <text x="611.5" y="587" style="font-weight:normal;">generate_consensus_files()</text>
  <text x="611.5" y="602" style="font-weight:normal;">_create_consensus_line()</text>
  <text x="611.5" y="617" style="font-weight:normal;">_get_lab_classification()</text>
  <text x="611.5" y="632" style="font-weight:normal;">_get_match_count_if_consensus()</text>
  <text x="611.5" y="647" style="font-weight:normal;">_get_matching_history()</text>
  <rect x="386.5" y="866.5" height="243" width="235" style="stroke:#33322E;fill:#fdf6e3;stroke-dasharray:none;"></rect>
  <text x="504" y="888" style="text-anchor: middle;">ConsensusReporter</text>
  <path d="M386.5 897.5 L621.5 897.5" style="stroke:#33322E;fill:none;stroke-dasharray:none;"></path>
  <text x="394.5" y="919" style="font-weight:normal;">consensus_csv</text>
  <text x="394.5" y="934" style="font-weight:normal;">session</text>
  <text x="394.5" y="949" style="font-weight:normal;">labs</text>
  <text x="394.5" y="964" style="font-weight:normal;">public_consenssus</text>
  <text x="394.5" y="979" style="font-weight:normal;">prefix</text>
  <path d="M386.5 988.5 L621.5 988.5" style="stroke:#33322E;fill:none;stroke-dasharray:none;"></path>
  <text x="394.5" y="1010" style="font-weight:normal;">process_consensus()</text>
  <text x="394.5" y="1025" style="font-weight:normal;">count_classifications()</text>
  <text x="394.5" y="1040" style="font-weight:normal;">write_opposites()</text>
  <text x="394.5" y="1055" style="font-weight:normal;">write_public_table()</text>
  <text x="394.5" y="1070" style="font-weight:normal;">write_variant_types()</text>
  <text x="394.5" y="1085" style="font-weight:normal;">write_count_output()</text>
  <text x="394.5" y="1100" style="font-weight:normal;">quality_check()</text>
  <path d="M1125.5 73.5 L1238.5 73.5 L1246.5 81.5 L1246.5 255.5 L1125.5 255.5 L1125.5 73.5 Z" style="stroke:#33322E;fill:#fdf6e3;stroke-dasharray:none;"></path>
  <path d="M1238.5 73.5 L1238.5 81.5 L1246.5 81.5" style="stroke:#33322E;fill:none;stroke-dasharray:none;"></path>
  <text x="1133.5" y="95" style="font-weight:normal;">config file</text>
  <path d="M1125.5 104.5 L1246.5 104.5" style="stroke:#33322E;fill:none;stroke-dasharray:none;"></path>
  <text x="1133.5" y="126" style="font-weight:normal;">username</text>
  <text x="1133.5" y="141" style="font-weight:normal;">password</text>
  <text x="1133.5" y="156" style="font-weight:normal;">labs</text>
  <text x="1133.5" y="171" style="font-weight:normal;">prefix</text>
  <text x="1133.5" y="186" style="font-weight:normal;">consensus</text>
  <text x="1133.5" y="201" style="font-weight:normal;">server</text>
  <text x="1133.5" y="216" style="font-weight:normal;">comments</text>
  <text x="1133.5" y="231" style="font-weight:normal;">previous</text>
  <text x="1133.5" y="246" style="font-weight:normal;">history</text>
  <rect x="1149.5" y="557.5" height="31" width="73" style="stroke:#33322E;fill:#fdf6e3;stroke-dasharray:none;"></rect>
  <text x="1186" y="579" style="text-anchor: middle;">config</text>
  <path d="M538.5 746.5 L660.5 746.5 L668.5 754.5 L668.5 777.5 L538.5 777.5 L538.5 746.5 Z" style="stroke:#33322E;fill:#fdf6e3;stroke-dasharray:none;"></path>
  <path d="M660.5 746.5 L660.5 754.5 L668.5 754.5" style="stroke:#33322E;fill:none;stroke-dasharray:none;"></path>
  <text x="546.5" y="768" style="font-weight:normal;">comments.csv</text>
  <path d="M939.5 746.5 L1071.5 746.5 L1079.5 754.5 L1079.5 777.5 L939.5 777.5 L939.5 746.5 Z" style="stroke:#33322E;fill:#fdf6e3;stroke-dasharray:none;"></path>
  <path d="M1071.5 746.5 L1071.5 754.5 L1079.5 754.5" style="stroke:#33322E;fill:none;stroke-dasharray:none;"></path>
  <text x="947.5" y="768" style="font-weight:normal;">consensus.csv</text>
  <path d="M300.5 1149.5 L498.5 1149.5 L506.5 1157.5 L506.5 1180.5 L300.5 1180.5 L300.5 1149.5 Z" style="stroke:#33322E;fill:#fdf6e3;stroke-dasharray:none;"></path>
  <path d="M498.5 1149.5 L498.5 1157.5 L506.5 1157.5" style="stroke:#33322E;fill:none;stroke-dasharray:none;"></path>
  <text x="308.5" y="1171" style="font-weight:normal;">public_consensus.csv</text>
  <rect x="613.5" y="1220.5" height="31" width="97" style="stroke:none; fill:#fdf6e3;"></rect>
  <path d="M613.5 1216.5 L613.5 1247.5" style="stroke:#33322E;fill:none;stroke-dasharray:none;"></path>
  <path d="M710.5 1216.5 L710.5 1247.5" style="stroke:#33322E;fill:none;stroke-dasharray:none;"></path>
  <ellipse cx="661.8" cy="1216.5" rx="48.5" ry="6" style="stroke:#33322E;fill:#fdf6e3;stroke-dasharray:none;"></ellipse>
  <path d="M613.3 1247.5A48.5 6 0 1 0 710.3 1247.5" style="stroke:#33322E;fill:#fdf6e3;stroke-dasharray:none;"></path>
  <text x="662" y="1242" style="text-anchor: middle;">MOLGENIS</text>
  <rect x="546.5" y="1149.5" height="31" width="121" style="stroke:#33322E;fill:#fdf6e3;stroke-dasharray:none;"></rect>
  <text x="607" y="1171" style="text-anchor: middle;">counts.html</text>
  <path d="M26.5 1149.5 L101.5 1149.5 L109.5 1157.5 L109.5 1180.5 L26.5 1180.5 L26.5 1149.5 Z" style="stroke:#33322E;fill:#fdf6e3;stroke-dasharray:none;"></path>
  <path d="M101.5 1149.5 L101.5 1157.5 L109.5 1157.5" style="stroke:#33322E;fill:none;stroke-dasharray:none;"></path>
  <text x="34.5" y="1171" style="font-weight:normal;">log.txt</text>
  <path d="M149.5 1149.5 L252.5 1149.5 L260.5 1157.5 L260.5 1180.5 L149.5 1180.5 L149.5 1149.5 Z" style="stroke:#33322E;fill:#fdf6e3;stroke-dasharray:none;"></path>
  <path d="M252.5 1149.5 L252.5 1157.5 L260.5 1157.5" style="stroke:#33322E;fill:none;stroke-dasharray:none;"></path>
  <text x="157.5" y="1171" style="font-weight:normal;">delins.csv</text>
  <path d="M707.5 1149.5 L839.5 1149.5 L847.5 1157.5 L847.5 1180.5 L707.5 1180.5 L707.5 1149.5 Z" style="stroke:#33322E;fill:#fdf6e3;stroke-dasharray:none;"></path>
  <path d="M839.5 1149.5 L839.5 1157.5 L847.5 1157.5" style="stroke:#33322E;fill:none;stroke-dasharray:none;"></path>
  <text x="715.5" y="1171" style="font-weight:normal;">opposites.txt</text>
  <path d="M887.5 1149.5 L981.5 1149.5 L989.5 1157.5 L989.5 1180.5 L887.5 1180.5 L887.5 1149.5 Z" style="stroke:#33322E;fill:#fdf6e3;stroke-dasharray:none;"></path>
  <path d="M981.5 1149.5 L981.5 1157.5 L989.5 1157.5" style="stroke:#33322E;fill:none;stroke-dasharray:none;"></path>
  <text x="895.5" y="1171" style="font-weight:normal;">types.txt</text>
</svg>