<svg width="1167.5" height="917" version="1.1" baseProfile="full" viewbox="0 0 1167.5 917" xmlns="http://www.w3.org/2000/svg" xmlns:xlink="http://www.w3.org/1999/xlink" xmlns:ev="http://www.w3.org/2001/xml-events" style="font-weight:bold; font-size:12pt; font-family:'Calibri', Helvetica, sans-serif;;stroke-width:3;stroke-linejoin:round;stroke-linecap:round"><path d="M493.3 75.5 L493.3 95.5 L506.5 115.5 L506.5 115.5 " style="stroke:#33322E;fill:none;stroke-dasharray:none;"></path>
<path d="M494.7 107.3 L502.8 109.9 L503.6 101.4 L506.5 115.5 Z" style="stroke:#33322E;fill:#33322E;stroke-dasharray:none;"></path>
<path d="M675.3 75.5 L675.3 95.5 L662 115.5 L662 115.5 " style="stroke:#33322E;fill:none;stroke-dasharray:none;"></path>
<path d="M664.9 101.4 L665.7 109.9 L673.8 107.3 L662 115.5 Z" style="stroke:#33322E;fill:#33322E;stroke-dasharray:none;"></path>
<path d="M567.2 350.5 L564.3 370.5 L565.7 390.5 L565.7 390.5 " style="stroke:#33322E;fill:none;stroke-dasharray:none;"></path>
<path d="M559.4 377.6 L565.2 383.9 L570.1 376.8 L565.7 390.5 Z" style="stroke:#33322E;fill:#33322E;stroke-dasharray:none;"></path>
<path d="M602.8 390.5 L604.3 370.5 L601.3 350.5 L601.3 350.5 " style="stroke:#33322E;fill:none;stroke-dasharray:none;"></path>
<path d="M608.5 362.9 L602.3 357.1 L598 364.5 L601.3 350.5 Z" style="stroke:#33322E;fill:#33322E;stroke-dasharray:none;"></path>
<rect x="504.5" y="115.5" height="235" width="159" style="stroke:#33322E;fill:#eee8d5;stroke-dasharray:none;"></rect>
<text x="584" y="137" style="text-anchor: middle;">MOLGENIS</text>
<path d="M504.5 146.5 L663.5 146.5" style="stroke:#33322E;fill:none;stroke-dasharray:none;"></path>
<text x="512.5" y="168" style="font-weight:normal;">Raw lab tabels</text>
<text x="512.5" y="183" style="font-weight:normal;">Lab tabels</text>
<text x="512.5" y="198" style="font-weight:normal;">Mappings</text>
<text x="512.5" y="213" style="font-weight:normal;">Consensus tabel</text>
<path d="M504.5 222.5 L663.5 222.5" style="stroke:#33322E;fill:none;stroke-dasharray:none;"></path>
<text x="498.5" y="298.5" style="font-weight:normal;">mapping</text>
<path d="M573 266.5 L573 286.5 L573 306.5 L573 306.5 " style="stroke:#33322E;fill:none;stroke-dasharray:none;"></path>
<path d="M567.7 293.2 L573 299.8 L578.3 293.2 L573 306.5 Z" style="stroke:#33322E;fill:#33322E;stroke-dasharray:none;"></path>
<rect x="517.5" y="235.5" height="31" width="111" style="stroke:#33322E;fill:#fdf6e3;stroke-dasharray:none;"></rect>
<text x="573" y="257" style="text-anchor: middle;">Raw tables</text>
<rect x="517.5" y="306.5" height="31" width="111" style="stroke:#33322E;fill:#fdf6e3;stroke-dasharray:none;"></rect>
<text x="573" y="328" style="text-anchor: middle;">Lab tabels</text>
<rect x="423.5" y="13.5" height="62" width="140" style="stroke:#33322E;fill:#eee8d5;stroke-dasharray:none;"></rect>
<text x="493.5" y="35" style="text-anchor: middle;">Amazon bucket</text>
<path d="M423.5 44.5 L563.5 44.5" style="stroke:#33322E;fill:none;stroke-dasharray:none;"></path>
<text x="431.5" y="66" style="font-weight:normal;">Raw lab data</text>
<rect x="603.5" y="13.5" height="62" width="144" style="stroke:#33322E;fill:#eee8d5;stroke-dasharray:none;"></rect>
<text x="675.5" y="35" style="text-anchor: middle;">Manual import</text>
<path d="M603.5 44.5 L747.5 44.5" style="stroke:#33322E;fill:none;stroke-dasharray:none;"></path>
<text x="611.5" y="66" style="font-weight:normal;">Raw lab data</text>
<rect x="13.5" y="390.5" height="514" width="1141.5" style="stroke:#33322E;fill:#eee8d5;stroke-dasharray:none;"></rect>
<text x="584.3" y="412" style="text-anchor: middle;">molgenis-py-consensus</text>
<path d="M13.5 421.5 L1155 421.5" style="stroke:#33322E;fill:none;stroke-dasharray:none;"></path>
<path d="M399.6 465.5 L335.5 485.5 L335.5 505.5 L335.5 505.5 " style="stroke:#33322E;fill:none;stroke-dasharray:none;"></path>
<path d="M330.2 492.2 L335.5 498.8 L340.8 492.2 L335.5 505.5 Z" style="stroke:#33322E;fill:#33322E;stroke-dasharray:none;"></path>
<path d="M498.9 465.5 L563 485.5 L563 505.5 L563 505.5 " style="stroke:#33322E;fill:none;stroke-dasharray:none;"></path>
<path d="M557.7 492.2 L563 498.8 L568.3 492.2 L563 505.5 Z" style="stroke:#33322E;fill:#33322E;stroke-dasharray:none;"></path>
<path d="M563 536.5 L563 556.5 L498.9 576.5 L498.9 576.5 " style="stroke:#33322E;fill:none;stroke-dasharray:none;"></path>
<path d="M510.1 567.4 L505.3 574.5 L513.2 577.6 L498.9 576.5 Z" style="stroke:#33322E;fill:#33322E;stroke-dasharray:none;"></path>
<path d="M335.5 536.5 L335.5 556.5 L399.6 576.5 L399.6 576.5 " style="stroke:#33322E;fill:none;stroke-dasharray:none;"></path>
<path d="M385.3 577.6 L393.2 574.5 L388.4 567.4 L399.6 576.5 Z" style="stroke:#33322E;fill:#33322E;stroke-dasharray:none;"></path>
<path d="M336.8 604.1 L119 627.5 L119 647.5 L119 647.5 " style="stroke:#33322E;fill:none;stroke-dasharray:none;"></path>
<path d="M113.7 634.2 L119 640.8 L124.3 634.2 L119 647.5 Z" style="stroke:#33322E;fill:#33322E;stroke-dasharray:none;"></path>
<path d="M531.6 607.5 L637.8 627.5 L637.8 647.5 L637.8 647.5 " style="stroke:#33322E;fill:none;stroke-dasharray:none;"></path>
<path d="M632.4 634.2 L637.8 640.8 L643.1 634.2 L637.8 647.5 Z" style="stroke:#33322E;fill:#33322E;stroke-dasharray:none;"></path>
<path d="M119 678.5 L119 698.5 L130.3 718.5 L130.3 718.5 " style="stroke:#33322E;fill:none;stroke-dasharray:none;"></path>
<path d="M119.1 709.5 L127 712.7 L128.4 704.3 L130.3 718.5 Z" style="stroke:#33322E;fill:#33322E;stroke-dasharray:none;"></path>
<path d="M567.8 669.2 L239.8 698.5 L183 718.5 L183 718.5 " style="stroke:#33322E;fill:none;stroke-dasharray:none;"></path>
<path d="M193.8 709 L189.3 716.3 L197.3 719.1 L183 718.5 Z" style="stroke:#33322E;fill:#33322E;stroke-dasharray:none;"></path>
<path d="M646.5 678.5 L657.8 698.5 L657.8 718.5 L657.8 718.5 " style="stroke:#33322E;fill:none;stroke-dasharray:none;"></path>
<path d="M652.4 705.2 L657.8 711.8 L663.1 705.2 L657.8 718.5 Z" style="stroke:#33322E;fill:#33322E;stroke-dasharray:none;"></path>
<path d="M139 749.5 L139 769.5 L139 805 L139 805 L139 840.5 L139 840.5 L182.4 860.5 L182.4 860.5 " style="stroke:#33322E;fill:none;stroke-dasharray:none;"></path>
<path d="M168 859.8 L176.3 857.7 L172.5 850.1 L182.4 860.5 Z" style="stroke:#33322E;fill:#33322E;stroke-dasharray:none;"></path>
<path d="M568.8 741.2 L220.5 769.5 L220.5 789.5 L220.5 789.5 " style="stroke:#33322E;fill:none;stroke-dasharray:none;"></path>
<path d="M215.2 776.2 L220.5 782.8 L225.8 776.2 L220.5 789.5 Z" style="stroke:#33322E;fill:#33322E;stroke-dasharray:none;"></path>
<path d="M568.8 744.5 L357.5 769.5 L357.5 789.5 L357.5 789.5 " style="stroke:#33322E;fill:none;stroke-dasharray:none;"></path>
<path d="M352.2 776.2 L357.5 782.8 L362.8 776.2 L357.5 789.5 Z" style="stroke:#33322E;fill:#33322E;stroke-dasharray:none;"></path>
<path d="M613.3 749.5 L556 769.5 L556 789.5 L556 789.5 " style="stroke:#33322E;fill:none;stroke-dasharray:none;"></path>
<path d="M550.7 776.2 L556 782.8 L561.3 776.2 L556 789.5 Z" style="stroke:#33322E;fill:#33322E;stroke-dasharray:none;"></path>
<path d="M702.2 749.5 L759.5 769.5 L759.5 789.5 L759.5 789.5 " style="stroke:#33322E;fill:none;stroke-dasharray:none;"></path>
<path d="M754.2 776.2 L759.5 782.8 L764.8 776.2 L759.5 789.5 Z" style="stroke:#33322E;fill:#33322E;stroke-dasharray:none;"></path>
<path d="M746.8 745.6 L930 769.5 L930 789.5 L930 789.5 " style="stroke:#33322E;fill:none;stroke-dasharray:none;"></path>
<path d="M924.7 776.2 L930 782.8 L935.3 776.2 L930 789.5 Z" style="stroke:#33322E;fill:#33322E;stroke-dasharray:none;"></path>
<path d="M746.8 741.3 L1091 769.5 L1091 789.5 L1091 789.5 " style="stroke:#33322E;fill:none;stroke-dasharray:none;"></path>
<path d="M1085.7 776.2 L1091 782.8 L1096.3 776.2 L1091 789.5 Z" style="stroke:#33322E;fill:#33322E;stroke-dasharray:none;"></path>
<path d="M556 820.5 L556 840.5 L264.5 870.9 L264.5 870.9 " style="stroke:#33322E;fill:none;stroke-dasharray:none;"></path>
<path d="M277.2 864.2 L271.1 870.2 L278.3 874.9 L264.5 870.9 Z" style="stroke:#33322E;fill:#33322E;stroke-dasharray:none;"></path>
<path d="M826 465.5 L826 485.5 L826 505.5 L826 505.5 " style="stroke:#33322E;fill:none;stroke-dasharray:none;"></path>
<path d="M820.7 492.2 L826 498.8 L831.3 492.2 L826 505.5 Z" style="stroke:#33322E;fill:#33322E;stroke-dasharray:none;"></path>
<path d="M826 536.5 L826 556.5 L826 576.5 L826 576.5 " style="stroke:#33322E;fill:none;stroke-dasharray:none;"></path>
<path d="M820.7 563.2 L826 569.8 L831.3 563.2 L826 576.5 Z" style="stroke:#33322E;fill:#33322E;stroke-dasharray:none;"></path>
<rect x="379.5" y="434.5" height="31" width="140" style="stroke:#33322E;fill:#fdf6e3;stroke-dasharray:none;"></rect>
<text x="449.5" y="456" style="text-anchor: middle;">DataRetriever</text>
<rect x="265.5" y="505.5" height="31" width="140" style="stroke:#33322E;fill:#fdf6e3;stroke-dasharray:none;"></rect>
<text x="335.5" y="527" style="text-anchor: middle;">HistorySorter</text>
<rect x="445.5" y="505.5" height="31" width="235" style="stroke:#33322E;fill:#fdf6e3;stroke-dasharray:none;"></rect>
<text x="563" y="527" style="text-anchor: middle;">ConsensusTableGenerator</text>
<rect x="336.5" y="576.5" height="31" width="225" style="stroke:#33322E;fill:#fdf6e3;stroke-dasharray:none;"></rect>
<text x="449" y="598" style="text-anchor: middle;">ConsensusFileGenerator</text>
<path d="M54.5 647.5 L176.5 647.5 L184.5 655.5 L184.5 678.5 L54.5 678.5 L54.5 647.5 Z" style="stroke:#33322E;fill:#fdf6e3;stroke-dasharray:none;"></path>
<path d="M176.5 647.5 L176.5 655.5 L184.5 655.5" style="stroke:#33322E;fill:none;stroke-dasharray:none;"></path>
<text x="62.5" y="669" style="font-weight:normal;">comments.csv</text>
<path d="M567.5 647.5 L699.5 647.5 L707.5 655.5 L707.5 678.5 L567.5 678.5 L567.5 647.5 Z" style="stroke:#33322E;fill:#fdf6e3;stroke-dasharray:none;"></path>
<path d="M699.5 647.5 L699.5 655.5 L707.5 655.5" style="stroke:#33322E;fill:none;stroke-dasharray:none;"></path>
<text x="575.5" y="669" style="font-weight:normal;">consensus.csv</text>
<rect x="26.5" y="718.5" height="31" width="225" style="stroke:#33322E;fill:#fdf6e3;stroke-dasharray:none;"></rect>
<text x="139" y="740" style="text-anchor: middle;">ConsensusTableUploader</text>
<rect x="568.5" y="718.5" height="31" width="178" style="stroke:#33322E;fill:#fdf6e3;stroke-dasharray:none;"></rect>
<text x="657.5" y="740" style="text-anchor: middle;">ConsensusReporter</text>
<rect x="167.5" y="860.5" height="31" width="97" style="stroke:none; fill:#fdf6e3;"></rect>
<path d="M167.5 856.5 L167.5 887.5" style="stroke:#33322E;fill:none;stroke-dasharray:none;"></path>
<path d="M264.5 856.5 L264.5 887.5" style="stroke:#33322E;fill:none;stroke-dasharray:none;"></path>
<ellipse cx="216" cy="856.5" rx="48.5" ry="6" style="stroke:#33322E;fill:#fdf6e3;stroke-dasharray:none;"></ellipse>
<path d="M167.5 887.5A48.5 6 0 1 0 264.5 887.5" style="stroke:#33322E;fill:#fdf6e3;stroke-dasharray:none;"></path>
<text x="216" y="882" style="text-anchor: middle;">MOLGENIS</text>
<path d="M179.5 789.5 L254.5 789.5 L262.5 797.5 L262.5 820.5 L179.5 820.5 L179.5 789.5 Z" style="stroke:#33322E;fill:#fdf6e3;stroke-dasharray:none;"></path>
<path d="M254.5 789.5 L254.5 797.5 L262.5 797.5" style="stroke:#33322E;fill:none;stroke-dasharray:none;"></path>
<text x="187.5" y="811" style="font-weight:normal;">log.txt</text>
<path d="M302.5 789.5 L405.5 789.5 L413.5 797.5 L413.5 820.5 L302.5 820.5 L302.5 789.5 Z" style="stroke:#33322E;fill:#fdf6e3;stroke-dasharray:none;"></path>
<path d="M405.5 789.5 L405.5 797.5 L413.5 797.5" style="stroke:#33322E;fill:none;stroke-dasharray:none;"></path>
<text x="310.5" y="811" style="font-weight:normal;">delins.csv</text>
<path d="M453.5 789.5 L651.5 789.5 L659.5 797.5 L659.5 820.5 L453.5 820.5 L453.5 789.5 Z" style="stroke:#33322E;fill:#fdf6e3;stroke-dasharray:none;"></path>
<path d="M651.5 789.5 L651.5 797.5 L659.5 797.5" style="stroke:#33322E;fill:none;stroke-dasharray:none;"></path>
<text x="461.5" y="811" style="font-weight:normal;">public_consensus.csv</text>
<path d="M699.5 789.5 L812.5 789.5 L820.5 797.5 L820.5 820.5 L699.5 820.5 L699.5 789.5 Z" style="stroke:#33322E;fill:#fdf6e3;stroke-dasharray:none;"></path>
<path d="M812.5 789.5 L812.5 797.5 L820.5 797.5" style="stroke:#33322E;fill:none;stroke-dasharray:none;"></path>
<text x="707.5" y="811" style="font-weight:normal;">counts.html</text>
<path d="M860.5 789.5 L992.5 789.5 L1000.5 797.5 L1000.5 820.5 L860.5 820.5 L860.5 789.5 Z" style="stroke:#33322E;fill:#fdf6e3;stroke-dasharray:none;"></path>
<path d="M992.5 789.5 L992.5 797.5 L1000.5 797.5" style="stroke:#33322E;fill:none;stroke-dasharray:none;"></path>
<text x="868.5" y="811" style="font-weight:normal;">opposites.txt</text>
<path d="M1040.5 789.5 L1134.5 789.5 L1142.5 797.5 L1142.5 820.5 L1040.5 820.5 L1040.5 789.5 Z" style="stroke:#33322E;fill:#fdf6e3;stroke-dasharray:none;"></path>
<path d="M1134.5 789.5 L1134.5 797.5 L1142.5 797.5" style="stroke:#33322E;fill:none;stroke-dasharray:none;"></path>
<text x="1048.5" y="811" style="font-weight:normal;">types.txt</text>
<path d="M765.5 434.5 L878.5 434.5 L886.5 442.5 L886.5 465.5 L765.5 465.5 L765.5 434.5 Z" style="stroke:#33322E;fill:#fdf6e3;stroke-dasharray:none;"></path>
<path d="M878.5 434.5 L878.5 442.5 L886.5 442.5" style="stroke:#33322E;fill:none;stroke-dasharray:none;"></path>
<text x="773.5" y="456" style="font-weight:normal;">config file</text>
<rect x="720.5" y="505.5" height="31" width="211" style="stroke:#33322E;fill:#fdf6e3;stroke-dasharray:none;"></rect>
<text x="826" y="527" style="text-anchor: middle;">MolgenisConfigParser</text>
<rect x="789.5" y="576.5" height="31" width="73" style="stroke:#33322E;fill:#fdf6e3;stroke-dasharray:none;"></rect>
<text x="826" y="598" style="text-anchor: middle;">config</text></svg>